<svg xmlns="http://www.w3.org/2000/svg" viewBox="0 0 368 50"><defs><style>.cls-1{fill:#009ee2;}.cls-2{fill:#999;}</style></defs><g id="Layer_2" data-name="Layer 2"><g id="Layer_1-2" data-name="Layer 1"><g id="Layer_2-2" data-name="Layer 2"><g id="Layer_1-2-2" data-name="Layer 1-2"><path class="cls-1" d="M106.81,14.2c0-1.25-.52-1.88-1.34-2-.52-.2-.59-.29-.59-.89l0-2.25c0-.41.55-.59,1.29-.58l10.72.12c.53,0,1.13.1,1.12.63l-.38,34.16c0,.62.2.74.66.93,1.27.43,1.27.61,1.24,2.77,0,.88-.16,1.25-1.28,1.24l-12.86-.15c-.88,0-.87-.49-.86-1.88,0-1.7.42-1.83.91-2,.67-.18,1-.38,1-1.11ZM184.24,29h0a15.64,15.64,0,0,1-3.08,3.24l.19-17.05c0-1.21.52-2.74,2.29-2.72s2.27,1.44,2.25,2.77l-.07,6.9s.06,4.29-1.58,6.86m-2.18,8.18h0c1.15-1.12,1.62-1.11,5.73-2.77,5-2,8.13-5.77,8.17-9.35.09-7.7-1-16.23-12.22-16.36-7-.08-14.78,4.93-15,20.33-.22,19.8,13.28,20.3,15,20.32A11.81,11.81,0,0,0,196.12,38c0-1.89-.8-2-2.11-2-3.24,0-3.43,0-3.52,1.93-.14,5.65-2.91,7.49-5.76,7.46-2.28,0-3.68-2-3.64-5a4.11,4.11,0,0,1,1-3.17m31-7.84h0A15.9,15.9,0,0,1,210,32.54l.19-17c0-1.22.52-2.75,2.28-2.73s2.26,1.45,2.25,2.78l-.08,6.89s.1,4.27-1.52,6.86m-2.22,8.16h0c1.15-1.11,1.62-1.11,5.74-2.76,5-2.05,8.12-5.78,8.16-9.35.09-7.7-1-16.24-12.2-16.37-7-.07-14.78,4.93-14.95,20.33-.22,19.8,13.28,20.31,15,20.33a11.8,11.8,0,0,0,12.31-11.33c0-1.89-.8-2-2.13-2-3.22,0-3.4,0-3.46,1.93-.14,5.66-2.91,7.5-5.76,7.47-2.3,0-3.72-2-3.68-5a4.25,4.25,0,0,1,1-3.17M1.14,46.94l14.33.16c.94,0,1.13-.66,1.14-1.54,0-1.83-.31-2.21-1.3-2.56a2,2,0,0,1-1.53-2.25l.11-9.64,3.8,0c6.14.07,14-3.07,14.15-15.33C31.94,6.39,26.36.28,17.25.18L1.48,0C.34,0,.33.47.32,1.49c0,2,0,2.23.87,2.63s1.6,1,1.59,2l-.4,35.59c0,.47-.68.74-1.1.92a2.72,2.72,0,0,0-.9.48c-.27.28-.36.47-.37,1.27,0,1,0,2.51,1.13,2.52m13-43.57h1.56c2.58,0,3.43,2.5,3.4,4.93L19,22.85c0,2.82-1.12,5-2.94,4.95l-2.13,0Zm48,23.54h0c.19-16.32-9.4-19.53-14.43-19.59A14.22,14.22,0,0,0,39,10.41c-4.63,4-6,10.7-6.11,17.5C32.67,43.81,41.19,47.79,47,47.85c4.3,0,15-2.32,15.18-20.94M50.09,14.69l-.27,24.86c0,1.61-.5,4.45-2.73,4.43-2,0-2.39-2.17-2.36-4.4L45,15.4c0-1.25.31-4.4,2.67-4.37,2.18,0,2.44,2.24,2.42,3.66M64,38l1.9,9c.25.88,1,1,1.93,1,2.17,0,2.31-.24,2.49-1,0-.19.06-.73.47-.73a5,5,0,0,1,1.83.57A8.72,8.72,0,0,0,77,48.17c3.78,0,8.36-2.6,8.44-9.67.06-6.06-2.84-10.65-6.36-15.22-.19-.23-1.13-1.35-1.35-1.55l-.94-1.42a1,1,0,0,1-.37-.45c-1.25-1.63-3.91-5.24-3.89-6.6a1.38,1.38,0,0,1,1.36-1.41H74c1.94,0,4.45,2.9,5.74,4.77.94,1.37,1.33,1.7,3.2,1.72s2.21-.3,1.93-1.44l-1.9-8.15c-.19-.89-.53-.91-1.48-.92-1.84,0-2.28,0-2.61.85-.08.36-.23.54-.57.54a2.4,2.4,0,0,1-1.74-.38,8.67,8.67,0,0,0-4.29-1.26c-2.82,0-8.36,1.59-8.44,9.21,0,3.92,1.25,6.61,4,11a37.94,37.94,0,0,0,2.84,4c2,2.66,5.88,7.73,5.85,10.24,0,1.42-.82,1.6-1.57,1.59-1.55,0-2.82-.56-5.39-4.72-.86-1.44-1.22-1.76-2.53-1.78-2,0-3.12.06-3,.87m24.65-25.8-.34,30.1A6.67,6.67,0,0,0,90.7,48l11.09.12c.28,0,.34-.37.35-.78,0-2.08-.37-2.27-1.19-2.63a2.12,2.12,0,0,1-1.51-2.23l.34-30.09,2.47,0a.69.69,0,0,0,.74-.53L103,9c0-.19-.45-.49-.65-.49l-2.47,0L100,1.18c0-.35-.46-.55-1-.55l-2.8,0c-.49,0-.69.72-.84,1.13C94,6.68,88.62,8.14,87.57,8.31c-.22,0-1.07.18-1.07.48l0,2.71c0,.32.18.68.46.68Zm45.84.38,0-3.09c0-.32-.25-.73-.59-.73l-11.45-.13c-.41,0-.88.21-.88.34l0,2.55c0,.32.52.49.74.55.67.33,1.08.69,1.07,1.34L123,43.12c0,.28,0,.47-1,1.29s-1,.94-1,1.22l0,1.95c0,.39.48.7,1,.7l12.87.15a.69.69,0,0,0,.74-.67h0l0-2.25c0-.26,0-.35-.59-.79-.88-.57-1.12-.84-1.11-1.55l.31-27.2a8.49,8.49,0,0,1,3-1,1.88,1.88,0,0,1,2,1.52L139,44.31a5.2,5.2,0,0,0,1.66,4.2l10.16.12a.81.81,0,0,0,.76-.67l0-2.36c0-.26,0-.36-.61-.74a1.6,1.6,0,0,1-.86-1.56l.3-26.6c0-.75,1.51-1.69,2.82-1.67a2.13,2.13,0,0,1,2.19,1.72l-.31,27.56a4.91,4.91,0,0,0,1.92,4.39l10,.11a.67.67,0,0,0,.68-.67l0-2c0-.46-.07-.65-.81-1.35s-.74-.84-.73-1.15l.31-28c.05-4.38-2.76-7-7.1-7-4-.05-6.29,1.95-9.15,4.36-1-1.7-2.64-4.42-6.94-4.47-4.14,0-6.86,2.23-8.88,4.06m92.39,27.25,1.9,9c.19.88,1,1,1.93,1,2.17,0,2.31-.24,2.48-1,0-.19.07-.73.42-.73a5.09,5.09,0,0,1,1.89.57A8.71,8.71,0,0,0,239.82,50c3.84,0,8.4-2.6,8.48-9.67.06-6.06-2.9-10.65-6.42-15.22a14.91,14.91,0,0,0-1.31-1.55l-.94-1.42a1.13,1.13,0,0,1-.39-.45c-1.23-1.63-3.89-5.24-3.87-6.6a1.4,1.4,0,0,1,1.38-1.41h.09c1.91,0,4.42,2.9,5.73,4.76.94,1.38,1.33,1.71,3.2,1.73s2.21-.3,1.93-1.44l-1.92-8.15c-.21-.89-.53-.91-1.48-.92-1.84,0-2.3,0-2.59.85-.08.36-.23.54-.63.54a2.4,2.4,0,0,1-1.7-.38,8.66,8.66,0,0,0-4.27-1.26c-2.88,0-8.38,1.59-8.46,9.21-.05,3.92,1.27,6.61,4,11a39.86,39.86,0,0,0,2.84,4c2,2.66,5.88,7.73,5.85,10.24,0,1.42-.82,1.6-1.57,1.59-1.57,0-2.82-.56-5.39-4.73-.87-1.43-1.24-1.75-2.53-1.77-2,0-3.14.06-3,.87M111.65,7.16c3.47,0,6.34-1.49,6.36-3.42S115.2.21,111.72.17s-6.34,1.48-6.36,3.43,2.79,3.52,6.29,3.56"/></g></g><path class="cls-1" d="M291.89,20.82h-6.52l-1.13,3.69h-5.08l7.23-19.74h4.47l7.28,19.74H293Zm-5.38-3.67h4.24l-2.13-6.85Z"/><path class="cls-1" d="M304.64,24.51H299.9V4.77h4.74Z"/><path class="cls-1" d="M323.42,8.45h-5.91V24.51h-4.76V8.45H307V4.77h16.47Z"/><path class="cls-1" d="M336.63,20.82h-6.52L329,24.51H323.9l7.23-19.74h4.47l7.28,19.74h-5.1Zm-8.81-19a1.66,1.66,0,0,1,.59-1.27A2.13,2.13,0,0,1,329.87,0a2.09,2.09,0,0,1,1.45.53,1.63,1.63,0,0,1,.59,1.27,1.65,1.65,0,0,1-.59,1.28,2.09,2.09,0,0,1-1.45.53,2.13,2.13,0,0,1-1.46-.53A1.68,1.68,0,0,1,327.82,1.8Zm3.43,15.35h4.24l-2.13-6.85Zm3.6-15.35a1.66,1.66,0,0,1,.59-1.27,2.26,2.26,0,0,1,2.91,0,1.66,1.66,0,0,1,.59,1.27,1.68,1.68,0,0,1-.59,1.28,2.26,2.26,0,0,1-2.91,0A1.68,1.68,0,0,1,334.85,1.8Z"/><path class="cls-1" d="M360.8,24.51h-4.73V16.27h-7v8.24h-4.75V4.77h4.75v7.84h7V4.77h4.73Z"/><path class="cls-1" d="M365.2,29.83l-2.31-1.09.47-.92a7.47,7.47,0,0,0,1-3.36V21.07H368V24a7.4,7.4,0,0,1-.8,3.17A8.21,8.21,0,0,1,365.2,29.83Z"/><path class="cls-1" d="M296.42,40.27a11.7,11.7,0,0,1-1.07,5.11,8,8,0,0,1-3,3.42,8.47,8.47,0,0,1-4.49,1.2,8.61,8.61,0,0,1-4.47-1.16,7.93,7.93,0,0,1-3-3.31,11.21,11.21,0,0,1-1.14-5V39.47a11.68,11.68,0,0,1,1.06-5.12,7.82,7.82,0,0,1,3-3.42,9,9,0,0,1,9,0,8,8,0,0,1,3.05,3.4,11.34,11.34,0,0,1,1.11,5Zm-4.84-.83a8.28,8.28,0,0,0-1-4.47,3.15,3.15,0,0,0-2.81-1.52q-3.57,0-3.78,5.37v1.45a8.57,8.57,0,0,0,1,4.46,3.14,3.14,0,0,0,2.86,1.56,3.09,3.09,0,0,0,2.77-1.54,8.31,8.31,0,0,0,1-4.4Z"/><path class="cls-1" d="M313.19,33.66h-5.91V49.73h-4.76V33.66h-5.81V30h16.48Z"/><path class="cls-1" d="M330.89,33.66H325V49.73h-4.75V33.66h-5.81V30h16.48Z"/><path class="cls-1" d="M332.8,47.68a2.06,2.06,0,0,1,.73-1.64,2.83,2.83,0,0,1,3.61,0,2.08,2.08,0,0,1,.72,1.64,2.12,2.12,0,0,1-.72,1.65,2.87,2.87,0,0,1-3.61,0A2.09,2.09,0,0,1,332.8,47.68Zm4.41-4.2h-3.69L332.94,30h4.86Z"/><rect class="cls-2" x="263.18" y="15" width="1" height="30"/></g></g></svg>